<?xml version="1.0" standalone="no"?><!DOCTYPE svg PUBLIC "-//W3C//DTD SVG 1.1//EN" "http://www.w3.org/Graphics/SVG/1.1/DTD/svg11.dtd"><svg t="1633405086462" class="icon" viewBox="0 0 1024 1024" version="1.1" xmlns="http://www.w3.org/2000/svg" p-id="3818" xmlns:xlink="http://www.w3.org/1999/xlink" width="200" height="200"><defs><style type="text/css"></style></defs><path d="M881.480605 512.469496a7.772227 7.772227 0 0 0-7.779525 7.615323c-2.712373 126.85758-71.635848 243.039599-181.660901 306.24033s-245.104895 64.19689-356.049479 2.626016A364.325259 364.325259 0 0 1 246.86795 759.065588l49.208291-37.363855a7.78439 7.78439 0 0 0-2.618718-13.702959l-160.989697-44.8466a7.790471 7.790471 0 0 0-9.877661 7.492476V837.770635a7.777092 7.777092 0 0 0 4.327635 6.969462 7.775876 7.775876 0 0 0 8.167527-0.773574l52.652884-39.982573c82.59116 92.00784 200.43466 144.522063 324.071449 144.408947 237.741349 0.184879 431.717398-190.290627 435.85772-427.99427a7.786823 7.786823 0 0 0-7.78439-7.929131h-58.402385zM255.861353 255.419212c114.305251-114.238354 290.45748-138.935547 431.769699-60.535795a364.62812 364.62812 0 0 1 89.120317 69.942743l-49.203425 37.368721a7.773443 7.773443 0 0 0-2.94104 7.659109 7.772227 7.772227 0 0 0 5.551243 6.037768l160.996995 44.8466a7.768578 7.768578 0 0 0 6.796745-1.296588 7.775876 7.775876 0 0 0 3.07605-6.204402V186.070028a7.779525 7.779525 0 0 0-4.323985-6.974327 7.789255 7.789255 0 0 0-8.16996 0.773574l-52.652884 39.991087A434.867643 434.867643 0 0 0 511.861961 75.452632C274.096286 75.233696 80.089829 265.723798 75.951939 503.446902a7.798986 7.798986 0 0 0 2.228282 5.601111 7.762496 7.762496 0 0 0 5.558541 2.328019h58.382924a7.779525 7.779525 0 0 0 7.783174-7.625053 359.463664 359.463664 0 0 1 105.956493-248.331767z m0 0" p-id="3819" fill="#71c0e5"></path></svg>